<?xml version="1.0" encoding="UTF-8"?>
<svg xmlns="http://www.w3.org/2000/svg"
     viewBox="0 0 32 32">

    <!-- 深綠背景 -->
    <rect x="0" y="0" width="32" height="32" rx="5" ry="5" fill="#2F5D36"/>

    <!-- 主體 -->
    <circle cx="16" cy="16" r="12" fill="#FCFDF8"/>

    <!-- 淺陰影 -->
    <path fill="#F0F4E7"
          d="M16.707,15.293L7.562,24.25l-0.081,0.199
             C9.656,26.641,12.669,28,16,28
             c3.674,0,6.957-1.655,9.159-4.256
             L16.707,15.293z"/>

    <!-- 深陰影 -->
    <path fill="#E0E8D0"
          d="M29.707,22.293l-1.596-1.596
             C28.677,19.239,29,17.659,29,16
             c0-7.18-5.82-13-13-13S3,8.82,3,16
             c0,3.23,1.185,6.178,3.134,8.452
             l-2.841,2.841
             c-0.391,0.391-0.391,1.023,0,1.414
             C3.488,28.902,3.744,29,4,29
             s0.512-0.098,0.707-0.293
             l2.841-2.841C9.822,27.815,12.77,29,16,29
             c4.767,0,8.923-2.574,11.186-6.4
             l1.107,1.107
             C28.488,23.902,28.744,24,29,24
             s0.512-0.098,0.707-0.293
             C30.098,23.316,30.098,22.684,29.707,22.293z

             M16,28
             c-2.954,0-5.654-1.072-7.745-2.841
             l8.452-8.452
             c0.391-0.391,0.391-1.023,0-1.414
             s-1.023-0.391-1.414,0
             l-8.452,8.452
             C5.072,21.654,4,18.954,4,16
             C4,9.373,9.373,4,16,4
             s12,5.373,12,12
             c0,1.374-0.242,2.689-0.668,3.918
             l-9.625-9.625
             c-0.391-0.391-1.023-0.391-1.414,0
             s-0.391,1.023,0,1.414
             l10.166,10.166
             C24.402,25.527,20.492,28,16,28z"/>
</svg>
